<svg width="24" height="24" viewBox="0 0 24 24" fill="none" xmlns="http://www.w3.org/2000/svg">
<path d="M17.4979 18.485L20.6279 9.09402C21.8759 5.34902 22.5009 3.47602 21.5119 2.48802C20.5239 1.49902 18.6519 2.12402 14.9059 3.37202L5.57488 6.48202C3.49288 7.17602 2.45189 7.52302 2.13589 8.28602C2.06138 8.4656 2.01647 8.65607 2.00289 8.85002C1.94389 9.67402 2.71988 10.45 4.27188 12.001L4.55488 12.284C4.80888 12.538 4.93689 12.666 5.03289 12.807C5.22289 13.087 5.32989 13.414 5.34289 13.752C5.35089 13.923 5.32388 14.102 5.27088 14.457C5.07488 15.761 4.97689 16.413 5.09189 16.915C5.32189 17.915 6.09589 18.7 7.09189 18.943C7.59189 19.066 8.24589 18.977 9.55189 18.8L9.62388 18.79C9.99188 18.74 10.1759 18.715 10.3529 18.726C10.6729 18.745 10.9829 18.85 11.2509 19.029C11.3979 19.127 11.5299 19.259 11.7919 19.521L12.0439 19.773C13.5539 21.283 14.3089 22.038 15.1099 21.999C15.3299 21.988 15.5479 21.937 15.7499 21.847C16.4839 21.524 16.8229 20.511 17.4979 18.485Z" stroke="#F2F2F2" stroke-width="1.5"/>
<path d="M6 18L21 3" stroke="#F2F2F2" stroke-width="1.5" stroke-linecap="round"/>
</svg>
