<svg width="54" height="28" viewBox="0 0 54 28" fill="none" xmlns="http://www.w3.org/2000/svg">
<g clip-path="url(#clip0_112_10)">
<path d="M53.7112 1.58908L40.7255 13.9336C40.6839 13.9726 40.6839 14.0384 40.7255 14.0786L53.6133 26.3927C54.2117 26.9642 53.8054 27.9708 52.9757 27.9708H46.8848C46.3072 27.9708 45.7528 27.749 45.3368 27.3517L36.1044 18.546C36.064 18.5083 36.0016 18.5083 35.9613 18.546L26.8415 27.3127C26.3838 27.7526 25.7719 27.9988 25.1355 27.9988H0.140737C0.0636374 27.9988 0 27.9354 0 27.8587V23.1207C0 23.0439 0.0624136 22.9818 0.139513 22.9818H21.9329C22.0014 22.9818 22.0687 22.955 22.1177 22.9074L31.312 14.0433C31.3537 14.0043 31.3524 13.9385 31.312 13.8983L22.0883 5.09989C22.0393 5.05237 21.9733 5.02678 21.9047 5.02678H0.150527C0.0734278 5.02678 0.00979037 4.96341 0.00979037 4.88664V0.14015C0.00979037 0.0633775 0.072204 0.00122843 0.148079 0.00122843H25.0829C25.7156 0.00122843 26.3239 0.246169 26.7791 0.68365L35.9502 9.49786C35.9894 9.53685 36.0543 9.53807 36.0946 9.49786L45.4652 0.503296C45.7834 0.197425 46.2081 0.0268192 46.6499 0.024382L53.0687 9.82418e-06C53.9058 -0.00364601 54.317 1.01389 53.7112 1.58908Z" fill="white"/>
</g>
<defs>
<clipPath id="clip0_112_10">
<rect width="54" height="28" fill="white"/>
</clipPath>
</defs>
</svg>
